<?xml version="1.0" standalone="no"?>
<!DOCTYPE svg PUBLIC "-//W3C//DTD SVG 20010904//EN"
 "http://www.w3.org/TR/2001/REC-SVG-20010904/DTD/svg10.dtd">
<svg version="1.0" xmlns="http://www.w3.org/2000/svg"
 width="1280.000000pt" height="914.000000pt" viewBox="0 0 1280.000000 914.000000"
 preserveAspectRatio="xMidYMid meet">
<metadata>
Created by potrace 1.15, written by Peter Selinger 2001-2017
</metadata>
<g transform="translate(0.000000,914.000000) scale(0.100000,-0.100000)"
fill="#000000" stroke="none">
<path d="M9944 9111 c-154 -78 -189 -266 -73 -392 27 -30 39 -50 36 -64 -3
-11 -16 -58 -30 -105 -37 -121 -64 -266 -78 -404 -13 -135 -2 -258 32 -359 11
-33 19 -60 17 -62 -2 -1 -44 -29 -93 -63 -159 -108 -346 -265 -481 -405 l-131
-135 -104 29 c-519 145 -1232 228 -1630 189 -309 -31 -583 -111 -884 -260
-501 -248 -980 -677 -1406 -1260 -89 -121 -166 -239 -343 -523 -348 -560 -548
-835 -789 -1084 l-109 -112 -82 63 c-44 35 -133 97 -196 139 -102 66 -157 99
-328 194 -34 19 -40 27 -33 41 20 37 41 175 41 264 0 165 -34 370 -95 570 -32
106 -32 108 -12 125 27 25 55 84 63 132 28 173 -129 320 -300 282 -152 -34
-237 -197 -176 -339 24 -55 82 -116 133 -137 29 -12 31 -16 29 -61 -8 -156
-47 -306 -93 -359 -26 -29 -38 -35 -70 -35 -81 0 -147 61 -371 340 -85 107
-171 212 -190 232 -27 29 -37 49 -42 89 -27 204 -254 296 -410 167 -73 -60
-103 -170 -75 -272 23 -83 133 -165 223 -166 25 -1 38 -10 70 -52 22 -28 131
-126 242 -219 111 -93 221 -190 243 -217 104 -121 101 -206 -11 -263 -44 -23
-177 -55 -263 -65 -58 -6 -61 -5 -72 19 -38 83 -130 140 -229 140 -142 0 -245
-105 -246 -248 -1 -140 106 -246 247 -247 78 0 141 27 186 81 l31 36 128 -32
c237 -59 505 -79 650 -49 36 8 68 12 72 10 12 -8 119 -213 164 -315 40 -90
114 -291 114 -309 0 -11 -135 -67 -259 -107 -99 -31 -111 -33 -255 -33 -685 0
-1189 252 -1523 761 -242 370 -396 939 -397 1464 0 171 3 215 23 305 104 486
431 928 937 1268 413 278 912 439 1294 419 248 -14 411 -83 552 -235 105 -114
164 -223 200 -371 27 -111 29 -304 4 -526 -24 -207 -19 -375 13 -458 45 -114
153 -203 316 -258 59 -20 90 -24 195 -24 122 0 127 1 195 34 133 65 226 192
277 377 32 117 32 393 0 547 -76 364 -254 707 -530 1021 -422 481 -935 672
-1602 595 -686 -79 -1525 -524 -1973 -1047 -663 -774 -862 -1854 -522 -2832
149 -428 362 -778 650 -1066 490 -491 1145 -772 2075 -890 152 -19 353 -15
545 11 61 8 115 15 121 15 12 0 59 -97 215 -440 l97 -215 -50 -27 c-173 -94
-391 -328 -548 -585 -31 -52 -33 -53 -80 -53 -97 0 -204 -85 -231 -183 -25
-92 12 -206 85 -262 140 -106 342 -44 397 122 11 33 8 125 -5 168 -5 16 7 30
66 71 99 70 195 120 260 134 73 17 109 -1 134 -65 25 -66 15 -183 -40 -460
-24 -126 -48 -259 -52 -294 -6 -55 -12 -70 -40 -98 -45 -45 -65 -85 -71 -148
-14 -135 85 -255 225 -272 184 -21 328 177 251 347 -11 24 -26 52 -34 60 -11
12 -12 24 -3 60 7 27 12 170 13 365 1 354 8 399 65 457 66 65 185 17 368 -148
l43 -39 -15 -37 c-37 -88 -7 -210 69 -277 53 -46 94 -61 167 -61 80 0 132 24
184 83 68 77 83 173 40 262 -43 91 -119 143 -219 150 l-50 3 -72 140 c-133
258 -262 422 -429 547 l-26 20 35 125 c64 227 114 572 98 686 l-5 40 143 38
c755 202 1612 540 2001 789 184 118 434 317 824 657 412 359 564 481 754 605
114 74 333 205 343 205 2 0 9 -33 16 -72 34 -200 105 -427 198 -634 l50 -110
-71 -37 c-138 -71 -257 -191 -394 -397 -42 -63 -101 -163 -131 -221 l-55 -105
-57 -11 c-114 -22 -198 -110 -207 -219 -7 -83 14 -140 72 -200 56 -57 97 -74
182 -74 166 0 283 168 229 330 l-17 52 48 44 c115 102 255 184 318 184 36 0
81 -43 96 -92 18 -61 15 -228 -9 -456 -12 -106 -21 -224 -21 -262 0 -64 -3
-74 -35 -115 -123 -161 -26 -384 175 -402 136 -13 253 83 267 219 7 67 -8 123
-48 178 -30 42 -32 47 -30 136 1 51 -10 201 -25 333 -29 266 -27 340 9 413 12
24 33 49 47 56 38 20 103 8 183 -31 92 -46 214 -138 208 -158 -11 -34 -12
-136 -2 -169 18 -61 65 -115 124 -144 142 -70 308 0 352 148 19 62 19 80 -1
145 -31 106 -125 173 -242 175 l-63 1 -56 90 c-140 225 -313 420 -450 509 -39
25 -76 46 -83 46 -7 0 -9 16 -5 48 3 26 12 117 20 202 21 211 52 460 76 605
22 134 27 162 65 322 l26 113 76 24 c171 54 387 70 543 40 76 -14 368 -105
398 -123 9 -6 1 -32 -34 -100 -152 -303 -177 -625 -74 -949 82 -255 271 -559
407 -650 180 -122 234 -142 382 -142 53 0 111 5 128 11 25 9 70 4 234 -25 438
-77 755 -105 978 -86 339 28 462 114 515 360 51 235 15 682 -98 1223 -14 64
-14 70 9 125 31 77 48 191 39 266 -21 191 -144 362 -315 438 -36 16 -87 41
-115 55 -27 14 -101 53 -162 85 -210 110 -414 161 -638 161 -201 0 -380 -43
-555 -134 -70 -36 -76 -38 -88 -22 -50 69 -173 201 -259 279 -194 175 -396
313 -659 450 l-151 79 19 75 c39 152 120 363 200 523 23 47 33 57 46 51 57
-24 132 -44 204 -55 154 -22 425 5 660 67 l98 26 32 -28 c81 -68 183 -83 273
-40 91 43 145 126 145 226 0 256 -343 345 -468 121 -26 -48 -26 -48 -72 -44
-93 10 -245 45 -297 69 -98 47 -117 104 -62 187 47 71 81 99 425 352 60 44
126 95 146 113 30 27 48 35 87 37 135 10 231 111 231 245 0 104 -47 183 -136
226 -75 37 -169 32 -240 -12 -56 -34 -109 -113 -120 -178 -6 -35 -16 -49 -68
-92 -33 -27 -135 -132 -226 -233 -171 -189 -227 -241 -295 -272 -84 -39 -140
-15 -181 78 -27 59 -54 199 -54 274 0 45 2 49 35 65 46 22 112 97 125 143 46
165 -58 316 -225 328 -52 4 -68 1 -121 -26z"/>
</g>
</svg>
