<?xml version="1.0" encoding="utf-8"?>
<!-- Svg Vector Icons : http://www.onlinewebfonts.com/icon -->
<!DOCTYPE svg PUBLIC "-//W3C//DTD SVG 1.1//EN" "http://www.w3.org/Graphics/SVG/1.1/DTD/svg11.dtd">
<svg version="1.1" xmlns="http://www.w3.org/2000/svg" xmlns:xlink="http://www.w3.org/1999/xlink" x="0px" y="0px" viewBox="0 0 1000 1000" enable-background="new 0 0 1000 1000" xml:space="preserve">
<metadata> Svg Vector Icons : http://www.onlinewebfonts.com/icon </metadata>
<g><g><g><circle cx="498.4" cy="92.5" r="82.5"/><path d="M527.1,214.3c-20.6-4.2-42.9-4-63.1,0.8C326.9,231.1,282.4,389.9,295,510.9c5.5,52.3,87.9,52.9,82.4,0c-4.6-44.1-2.6-110.7,20.8-158c0,57.5,0,115,0,172.5c0,2,0.2,3.9,0.3,5.9c-0.1,0.9-0.3,1.7-0.3,2.7c0,136.9-0.2,273.7-5.9,410.5c-2.5,60.8,91.8,60.6,94.3,0c4.4-107.2,5.5-214.5,5.8-321.7c4.5,0.3,8.9,0.3,13.4,0c0.3,107.3,1.4,214.5,5.7,321.7c2.5,60.6,96.8,60.8,94.3,0C600.2,807.7,600,670.9,600,534c0-4.2-0.6-8.1-1.4-11.8c-0.1-59.4-2.4-118.9-1.7-178.3c28.1,47.5,30.6,120,25.8,167c-5.5,52.8,77,52.3,82.4,0C717.9,387.3,671.2,224.5,527.1,214.3z"/></g></g><g></g><g></g><g></g><g></g><g></g><g></g><g></g><g></g><g></g><g></g><g></g><g></g><g></g><g></g><g></g></g>
</svg>