<?xml version="1.0" encoding="utf-8"?>
<!-- Svg Vector Icons : http://www.onlinewebfonts.com/icon -->
<!DOCTYPE svg PUBLIC "-//W3C//DTD SVG 1.1//EN" "http://www.w3.org/Graphics/SVG/1.1/DTD/svg11.dtd">
<svg version="1.1" xmlns="http://www.w3.org/2000/svg" xmlns:xlink="http://www.w3.org/1999/xlink" x="0px" y="0px" viewBox="0 0 1000 1000" enable-background="new 0 0 1000 1000" xml:space="preserve">
<metadata> Svg Vector Icons : http://www.onlinewebfonts.com/icon </metadata>
<g><g transform="translate(0.000000,511.000000) scale(0.100000,-0.100000)"><path d="M2872.6,3765.8c-54.4-50.4-6,108.9-1542.6-4966.5C993.3-2309.8,711-3227.2,700.9-3239.3c-12.1-16.1-110.9-22.2-308.5-20.2l-292.4,2v-165.4v-167.4h4900h4900v161.3v161.3l-54.5,2c-32.2,0-669.5,2-1419.6,2c-750.1,0-1373.2,6-1383.3,14.1c-18.1,12.1-256.1,609-1734.2,4347.5c-294.4,744.1-554.5,1371.2-576.7,1397.4c-28.2,30.2-64.5,44.4-110.9,44.4c-76.6,0-125-42.3-383.1-330.7c-68.6-78.6-127-137.1-131.1-131.1c-4,4-227.9,375.1-496.1,824.7c-268.2,449.7-510.2,836.8-538.4,863c-28.2,24.2-72.6,44.4-98.8,44.4S2900.9,3790,2872.6,3765.8z M3495.7,2439c252.1-419.4,475.9-778.4,500.1-796.5c94.8-64.5,135.1-44.4,358.9,191.6l211.7,221.8l653.3-1647.5c358.9-907.4,828.8-2093.1,1042.5-2633.5c215.8-540.4,391.2-992.1,391.2-1002.2c0-12.1-1038.5-20.2-2794.8-20.2H1063.9l12.1,52.4c8.1,30.3,338.8,1125.2,736,2435.9c397.2,1308.7,830.8,2738.3,961.9,3171.9c133.1,435.5,246,792.5,252.1,792.5C3033.9,3205.3,3245.7,2860.4,3495.7,2439z"/><path d="M5935.6,2037.7c-258.1-117-395.2-411.4-300.5-639.2c70.6-167.4,242-308.5,417.4-340.8c258.1-48.4,566.6,225.8,566.6,502.1C6617.2,1902.6,6234.1,2172.8,5935.6,2037.7z M6222,1717.1c38.3-24.2,68.6-98.8,68.6-165.4c0-125-161.3-205.7-282.3-141.2c-78.7,42.3-94.8,207.7-24.2,288.3C6016.3,1735.3,6177.6,1747.4,6222,1717.1z"/><path d="M7964.2,1029.5c-181.5-58.5-352.9-211.7-427.5-379.1c-50.4-112.9-44.4-318.6,12.1-433.5C7692-81.6,8038.8-222.7,8313-95.7c135.1,62.5,254.1,175.4,318.6,308.5c66.6,135.1,66.6,342.8,2,467.8c-68.6,131.1-177.4,237.9-296.4,296.4C8224.3,1033.5,8048.9,1057.7,7964.2,1029.5z M8278.8,636.3c60.5-60.5,68.6-80.7,68.6-175.4c0-145.2-52.4-229.9-159.3-262.1c-211.7-62.5-395.2,90.7-354.9,300.5c26.2,145.2,102.8,203.7,270.2,205.7C8198.1,704.9,8218.3,696.8,8278.8,636.3z"/><path d="M7554.9-543.3c-151.2-60.5-266.2-167.4-338.8-314.6c-56.5-114.9-62.5-143.2-54.4-266.2c14.1-229.9,131.1-403.3,342.8-508.2c215.8-108.9,435.5-74.6,621.1,92.8c149.2,133.1,209.7,262.1,209.7,439.6c0,112.9-10.1,161.3-52.4,242C8135.6-577.6,7813-438.5,7554.9-543.3z M7936-916.4c60.5-60.5,68.6-80.7,68.6-171.4c0-187.5-90.7-276.2-276.3-272.2c-104.9,2-181.5,50.4-219.8,139.1c-38.3,92.8-36.3,167.4,8.1,252.1c44.4,88.7,106.9,121,244,121C7855.3-847.8,7875.5-855.9,7936-916.4z"/><path d="M8667.9-1743.1c-117-40.3-211.7-106.9-308.5-215.7c-235.9-262.1-229.9-611,14.1-879.2c268.2-292.4,671.5-310.5,949.8-38.3c125,121,187.5,231.9,215.7,387.1c52.4,288.4-155.3,623.1-461.8,742.1C8976.5-1708.9,8770.8-1706.8,8667.9-1743.1z M9061.2-2094c94.8-54.4,157.3-191.6,149.2-328.7c-10.1-137.1-70.6-229.9-185.5-282.3c-213.7-96.8-447.6,6-494,217.8c-40.3,197.6,56.5,389.2,223.8,431.5C8845.4-2033.5,8986.5-2049.6,9061.2-2094z"/></g></g>
</svg>
