<?xml version="1.0"?>
<svg xmlns="http://www.w3.org/2000/svg" version="1" width="26" height="26" viewBox="0 0 26 26">
    <path style="text-indent:0;text-align:start;line-height:normal;text-transform:none;block-progression:tb;-inkscape-font-specification:Bitstream Vera Sans" d="M 13 1.1875 C 7 1.1875 4 4.3125 4 9.8125 C 4.0184847 10.385527 4.0519594 10.830763 4.125 11.25 C 3.9443198 11.171554 3.7429066 11.09375 3.5 11.09375 C 3.1575 11.09375 2.7572984 11.28109 2.53125 11.53125 C 2.3052016 11.78141 2.2074014 12.041232 2.15625 12.28125 C 2.0539472 12.761286 2.093096 13.217352 2.15625 13.6875 C 2.2825585 14.627797 2.5841886 15.596316 2.75 16.09375 A 0.90008998 0.90008998 0 0 0 2.78125 16.15625 C 3.1612128 17.024737 3.6035844 17.810346 4.125 18.40625 C 4.4598914 18.788983 4.8693049 19.050078 5.3125 19.25 C 5.683766 21.47921 7.129626 23.136382 8.65625 24.1875 C 9.4886662 24.760639 10.344353 25.188154 11.09375 25.46875 C 11.843147 25.749346 12.444231 25.90625 13 25.90625 C 13.555769 25.90625 14.156853 25.749346 14.90625 25.46875 C 15.655647 25.188154 16.511334 24.760639 17.34375 24.1875 C 18.86185 23.142251 20.274644 21.491354 20.65625 19.28125 C 21.11731 19.087582 21.55108 18.800884 21.90625 18.40625 C 22.44717 17.805228 22.912483 17.025046 23.25 16.125 C 23.437517 15.624954 23.717663 14.671404 23.84375 13.71875 C 23.90679 13.242423 23.943909 12.795318 23.84375 12.3125 C 23.79367 12.071091 23.691317 11.785274 23.46875 11.53125 C 23.246183 11.277226 22.85 11.09375 22.5 11.09375 C 22.245415 11.09375 22.031415 11.165088 21.84375 11.25 C 21.930865 10.813122 22 10.350695 22 9.8125 C 22 3.4125 19 1.1875 13 1.1875 z M 6.8125 6.8125 C 6.8743408 6.7950928 6.93125 6.8125 7 6.8125 C 7.8 6.8125 8.8 7.5 13 7.5 C 17.2 7.5 18.1 6.8125 19 6.8125 C 20.2 6.8125 20.09375 10.6125 20.09375 14.3125 C 20.243146 14.222862 20.470009 14.012798 20.71875 13.71875 A 0.90598056 0.90598056 0 0 0 21.75 13.53125 C 21.861658 13.419592 21.934047 13.3955 22.03125 13.3125 C 22.02555 13.38031 22.04075 13.397 22.03125 13.46875 C 21.93234 14.216096 21.674983 15.168796 21.5625 15.46875 C 21.300017 16.168704 20.92158 16.788522 20.5625 17.1875 C 20.20342 17.586478 19.85625 17.6875 19.90625 17.6875 A 0.90008998 0.90008998 0 0 0 19 18.53125 C 18.873838 20.381625 17.697668 21.765028 16.3125 22.71875 C 15.619916 23.195611 14.900603 23.549346 14.28125 23.78125 C 13.661897 24.013154 13.094231 24.09375 13 24.09375 C 12.90577 24.09375 12.338103 24.01315 11.71875 23.78125 C 11.099397 23.549346 10.380084 23.195611 9.6875 22.71875 C 8.3023324 21.765028 7.1261619 20.381625 7 18.53125 A 0.90008998 0.90008998 0 0 0 6.09375 17.6875 C 6.14375 17.6875 5.8535844 17.62285 5.5 17.21875 C 5.1582954 16.82823 4.7825656 16.200363 4.46875 15.5 C 4.46444 15.48708 4.442069 15.45149 4.4375 15.4375 C 4.2997006 15.015481 4.0642745 14.148627 3.96875 13.4375 C 3.96087 13.37882 3.97393 13.3684 3.96875 13.3125 C 4.065952 13.3955 4.1383417 13.419592 4.25 13.53125 A 0.90598056 0.90598056 0 0 0 5.28125 13.6875 C 5.4890625 13.904687 5.70625 14.1125 5.90625 14.3125 C 5.71875 9.34375 5.8848877 7.0736084 6.8125 6.8125 z M 7 9.1875 C 7 9.1875 7.2 12.5 11 13 L 12 11.3125 C 8.2 11.9125 7 9.1875 7 9.1875 z M 19 9.1875 C 19 9.1875 17.8 11.9125 14 11.3125 L 15 13 C 18.8 12.5 19 9.1875 19 9.1875 z M 9.5 14 C 8.6715729 14 8 14.671573 8 15.5 C 8 16.328427 8.6715729 17 9.5 17 C 10.328427 17 11 16.328427 11 15.5 C 11 14.671573 10.328427 14 9.5 14 z M 16.5 14 C 15.671573 14 15 14.671573 15 15.5 C 15 16.328427 15.671573 17 16.5 17 C 17.328427 17 18 16.328427 18 15.5 C 18 14.671573 17.328427 14 16.5 14 z" overflow="visible" enable-background="accumulate" font-family="Bitstream Vera Sans"/>
</svg>
